<?xml version="1.0" encoding="UTF-8" standalone="no"?>
<svg width="500px" height="500px" viewBox="0 0 500 500" version="1.1" xmlns="http://www.w3.org/2000/svg" xmlns:xlink="http://www.w3.org/1999/xlink">
    <!-- Generator: Sketch 39.1 (31720) - http://www.bohemiancoding.com/sketch -->
    <title>PIT</title>
    <desc>Created with Sketch.</desc>
    <defs></defs>
    <g id="MLB" stroke="none" stroke-width="1" fill="none" fill-rule="evenodd">
        <g id="PIT">
            <g id="Page-1" transform="translate(72.000000, 13.000000)">
                <g id="Group-3" transform="translate(0.000000, 0.042745)" stroke="#FFFFFF" stroke-width="12.7602459" fill="#FEFEFE">
                    <path d="M328.831325,253.789576 C295.828852,261.990329 271.328094,281.613561 263.332528,306.287064 L257.021487,325.815306 L242.327359,311.479819 C229.831815,299.257846 218.44347,294.919996 198.853936,294.919996 C198.853936,294.919996 135.696077,294.888333 116.588966,294.880417 L116.588966,376.674227 C116.588966,385.587401 121.729538,393.471523 129.661836,396.756574 L141.429792,401.624782 L112.397422,472.019861 L36.6491156,472.019861 L7.70374042,401.798929 L19.2107133,396.827816 C27.5068058,393.257797 32.4575722,385.721969 32.4575722,376.674227 L32.4575722,136.841764 C32.4575722,127.794021 27.5068058,120.274025 19.2423476,116.704006 L7.83818615,111.788303 L36.5542127,39.8813095 C36.5542127,39.8813095 198.822302,40.1108673 198.853936,40.1108673 C220.990031,40.1108673 231.160455,36.7704059 242.327359,25.8545379 L257.39319,11.1311773 L263.419522,31.3164298 C271.138289,57.1139741 295.291069,87.2731161 326.537839,95.0464172 L343.027212,99.1388782 L334.478045,113.82266 C324.196901,131.490693 319.633655,150.607314 319.633655,175.787427 C319.633655,196.360553 324.908673,214.614354 336.771531,235.005417 L345.31279,249.689199 L328.831325,253.789576 Z M341.896286,232.01325 C330.602845,212.603745 325.565084,195.260259 325.565084,175.787427 C325.565084,151.691777 329.898982,133.501302 339.6028,116.814827 L352.129979,95.2918066 L327.96929,89.2837255 C298.881561,82.0486978 276.334221,53.7893443 269.105786,29.614536 L260.264002,0.0174147277 L253.241189,6.88040058 L238.183267,21.6037612 C228.218466,31.3560087 219.392499,34.1740283 198.853936,34.1740283 C198.782759,34.1740283 32.5366579,33.9365547 32.5366579,33.9365547 L0.182688024,114.954617 L16.8935016,122.157982 C23.0147367,124.801854 26.5261428,130.152925 26.5261428,136.841764 L26.5261428,376.674227 C26.5261428,383.370981 23.0068281,388.729968 16.8697759,391.37384 L0.000790857245,398.664278 L32.6790122,477.956699 L116.367526,477.956699 L149.172284,398.410973 L131.939505,391.270935 C126.213699,388.904115 122.520395,383.181002 122.520395,376.674227 L122.520395,300.825172 C132.738271,300.825172 198.853936,300.856835 198.853936,300.856835 C216.901299,300.856835 226.826557,304.608917 238.183267,315.72268 C238.191176,315.730596 259.726219,336.747006 259.726219,336.747006 L268.979248,308.11561 C276.334221,285.421054 299.245355,267.262242 330.262776,259.552267 L354.415556,253.544186 L341.896286,232.01325 Z" id="Fill-1"></path>
                </g>
                <path d="M122.813803,121.922883 L225.791325,121.922883 C230.512743,121.922883 238.437132,123.165661 238.437132,131.493067 L238.437132,203.985829 C238.437132,209.107342 238.437132,211.442499 225.791325,211.442499 L122.813803,211.442499 L122.813803,121.922883 Z M244.368562,203.985829 L244.368562,131.493067 C244.368562,121.922883 237.258755,115.986044 225.791325,115.986044 L116.882374,115.986044 L116.882374,217.379338 L225.791325,217.379338 C244.368562,217.379338 244.368562,210.263047 244.368562,203.985829 L244.368562,203.985829 Z" id="Fill-4" fill="#FEFEFE"></path>
                <path d="M116.882374,115.986044 L225.791325,115.986044 C237.258755,115.986044 244.368562,121.922883 244.368562,131.493067 L244.368562,203.985829 C244.368562,210.263047 244.368562,217.379338 225.791325,217.379338 L116.882374,217.379338 L116.882374,115.986044 Z M257.093455,203.985829 L257.093455,131.493067 C257.093455,115.39236 245.032882,103.233714 225.791325,103.233714 L104.157481,103.233714 L104.157481,230.123752 L225.791325,230.123752 C247.563625,230.123752 257.093455,220.893947 257.093455,203.985829 L257.093455,203.985829 Z" id="Fill-6" fill="#221F20"></path>
                <path d="M103.8617,282.17479 L103.8617,376.72093 C103.8617,390.906017 112.149884,403.349631 124.8036,408.57405 L103.8617,459.322149 L45.1721841,459.322149 L24.2619186,408.57405 C36.9077259,403.112158 45.1721841,391.127659 45.1721841,376.72093 L45.1721841,136.880551 C45.1721841,122.489653 36.9077259,110.489323 24.2619186,105.035347 L45.1721841,52.6803427 L198.859472,52.9019847 C221.86551,52.9019847 236.37774,49.5140286 251.230039,35.0202257 C260.150909,64.838989 287.712284,98.5760659 323.46694,107.457577 C309.911647,130.769565 306.890572,154.239868 306.890572,175.83413 C306.890572,197.45214 312.197224,218.144003 325.768335,241.455991 C290.013678,250.337502 260.894315,272.565027 251.230039,302.391706 C236.37774,287.905819 221.86551,282.222285 198.859472,282.222285 L103.8617,282.17479 Z M336.769159,235.044204 C324.9063,214.653142 319.631282,196.399341 319.631282,175.83413 C319.631282,150.654017 324.194529,131.537396 334.475673,113.869363 L343.02484,99.1855814 L326.535466,95.0852046 C295.288696,87.3198192 271.135916,57.1527614 263.425058,31.3552171 L257.390817,11.1699646 L242.332895,25.8933253 C231.165991,36.817109 220.995567,40.1496546 198.859472,40.1496546 C198.827838,40.1496546 36.5518401,39.9200968 36.5518401,39.9200968 L7.83581358,111.82709 L19.239975,116.742793 C27.5123418,120.312812 32.4631082,127.840724 32.4631082,136.880551 L32.4631082,376.72093 C32.4631082,385.760757 27.5123418,393.296584 19.2162493,396.874519 L7.70927642,401.845632 L36.646743,472.058648 L112.39505,472.058648 L141.427419,401.671485 L129.667372,396.795361 C121.727165,393.518226 116.586593,385.626188 116.586593,376.72093 L116.586593,294.92712 C135.693704,294.935036 198.859472,294.966699 198.859472,294.966699 C218.441098,294.966699 229.837351,299.296634 242.332895,311.526522 L257.019114,325.862009 L263.330155,306.333767 C271.33363,281.652348 295.826479,262.037032 328.828952,253.828363 L345.310417,249.735902 L336.769159,235.044204 Z" id="Fill-8" fill="#221F20"></path>
                <path d="M104.155108,103.235297 L225.788953,103.235297 C245.030509,103.235297 257.091082,115.393943 257.091082,131.486735 L257.091082,203.987412 C257.091082,220.89553 247.569161,230.125335 225.788953,230.125335 L104.155108,230.125335 L104.155108,103.235297 Z M251.23083,302.396455 C260.895106,272.569776 290.014469,250.334335 325.761217,241.452824 C312.198015,218.148752 306.891363,197.448974 306.891363,175.830964 C306.891363,154.236702 309.912438,130.766398 323.459822,107.462326 C287.713075,98.5728996 260.1517,64.8437384 251.23083,35.0170594 C236.378531,49.5108623 221.866301,52.9067342 198.860263,52.9067342 L45.172975,52.6771764 L24.2548008,105.03218 C36.9085168,110.486156 45.172975,122.494403 45.172975,136.8853 L45.172975,376.717763 C45.172975,391.132408 36.9085168,403.116907 24.2548008,408.578799 L45.172975,459.318983 L103.862491,459.318983 L124.804391,408.578799 C112.150675,403.346465 103.862491,390.902851 103.862491,376.717763 L103.862491,282.171624 L198.860263,282.219119 C221.866301,282.219119 236.378531,287.910568 251.23083,302.396455 L251.23083,302.396455 Z" id="Fill-10" fill="#FDB927"></path>
            </g>
        </g>
    </g>
</svg>